HIERARCHY
ROOT base
{
	OFFSET 0.0 0.0 0.0
	CHANNELS 6 Xposition Yposition Zposition Zrotation Yrotation Xrotation
	JOINT root
	{
		OFFSET 0 0 0
		CHANNELS 6 Xposition Yposition Zposition Zrotation Yrotation Xrotation
		JOINT chest
		{
			OFFSET 0 4.72302 0
			CHANNELS 3 Zrotation Yrotation Xrotation
			JOINT neck
			{
				OFFSET 0 4.47788 0
				CHANNELS 3 Zrotation Yrotation Xrotation
				End Site
				{
					OFFSET 0.0 0.0 0.0
				}
			}
			JOINT right_shoulder
			{
				OFFSET -0.481 4.87 3.6622
				CHANNELS 3 Zrotation Yrotation Xrotation
				JOINT right_elbow
				{
					OFFSET 0 -5.49576 0
					CHANNELS 3 Zrotation Yrotation Xrotation
					JOINT right_wrist
					{
						OFFSET 0 -5.17894 0
						CHANNELS 3 Zrotation Yrotation Xrotation
						End Site
						{
							OFFSET 0.0 0.0 0.0
						}
					}
				}
			}
			JOINT left_shoulder
			{
				OFFSET -0.481 4.87 -3.6622
				CHANNELS 3 Zrotation Yrotation Xrotation
				JOINT left_elbow
				{
					OFFSET 0 -5.49576 0
					CHANNELS 3 Zrotation Yrotation Xrotation
					JOINT left_wrist
					{
						OFFSET 0 -5.17894 0
						CHANNELS 3 Zrotation Yrotation Xrotation
						End Site
						{
							OFFSET 0.0 0.0 0.0
						}
					}
				}
			}
		}
		JOINT right_hip
		{
			OFFSET 0 0 1.69774
			CHANNELS 3 Zrotation Yrotation Xrotation
			JOINT right_knee
			{
				OFFSET 0 -8.43092 0
				CHANNELS 3 Zrotation Yrotation Xrotation
				JOINT right_ankle
				{
					OFFSET 0 -8.1974 0
					CHANNELS 3 Zrotation Yrotation Xrotation
					End Site
					{
						OFFSET 0.0 0.0 0.0
					}
				}
			}
		}
		JOINT left_hip
		{
			OFFSET 0 0 -1.69774
			CHANNELS 3 Zrotation Yrotation Xrotation
			JOINT left_knee
			{
				OFFSET 0 -8.43092 0
				CHANNELS 3 Zrotation Yrotation Xrotation
				JOINT left_ankle
				{
					OFFSET 0 -8.1974 0
					CHANNELS 3 Zrotation Yrotation Xrotation
					End Site
					{
						OFFSET 0.0 0.0 0.0
					}
				}
			}
		}
	}
	JOINT red_arrow
	{
		OFFSET 0 0 0
		CHANNELS 3 Zrotation Yrotation Xrotation
		End Site
		{
			OFFSET 0.0 0.0 0.0
		}
	}
	JOINT blue_arrow
	{
		OFFSET 0 0 0
		CHANNELS 3 Zrotation Yrotation Xrotation
		End Site
		{
			OFFSET 0.0 0.0 0.0
		}
	}
}
MOTION
Frames: 10
Frame Time: 0.0333333333333333
-116.213940274715 0 -4.25769063979387 0 29.1198017906039 0 0 15.1628135919571 0 -67.715044996188 -7.13407854243643 32.7415852773823 0.615265482435195 -0.49049495574595 -0.846701734605225 -6.11774626062816 -4.78395196409377 1.7347325293137 37.0982438648086 22.3489858522768 -10.2036186335841 19.0993757968698 0 0 0 0 0 32.6188166613762 -43.4919057635277 20.1617915315863 17.9265179107101 0 0 0 0 0 92.42183334126 -5.07058756300126 -14.2169134806222 -63.5843415121022 0 0 39.7283751311953 4.02853962718528 4.57393161051347 105.912268662773 0.420159996625584 -2.77797867482486 -57.2086023936109 0 0 18.9476640941558 -4.09808075266771 -3.78349004995929 0 0 0 0 0 0
-116.296743857861 0 -4.1033752605319 0 28.0933247032326 0 0 15.376993727684 0 -60.0656491144713 -10.0228280624451 29.029558473943 -3.93854323851838 -0.75641305898364 0.0452274337590137 -7.80768952670933 -4.85664246016743 2.06886645719276 38.1428176609438 21.2157765614426 -5.55124176615841 19.2806165740434 0 0 0 0 0 35.7370365617291 -38.5187476450093 17.0939716349799 15.8062393621359 0 0 0 0 0 86.1445993544243 -7.72286813805044 -14.3850569609158 -61.9018063723396 0 0 36.3716645003118 3.16168193528648 3.14798374438646 96.2182347665797 2.53174286958615 -1.73084219464538 -53.6864309329862 0 0 16.679466638882 -7.66988799280189 -3.41601432387965 0 0 0 0 0 0
-116.251329934597 0 -4.00205549895763 0 27.0556964884742 0 0 15.7049881458282 0 -53.5178033363768 -12.027750270346 25.9362866297251 -5.93855002458766 -0.953272290785782 0.50831349527013 -10.2703116892898 -5.50070506773873 2.60762260355471 35.2001576602322 19.0747493883541 -3.71034200065772 22.5864878964848 0 0 0 0 0 34.8382741334617 -33.6951961575759 14.8611265162511 15.6129450086246 0 0 0 0 0 77.2809535532375 -9.31573920884802 -13.9792052386368 -57.3769699717463 0 0 34.1127561253342 2.84453758404114 2.69178704609535 86.4337174702203 3.74701719627892 -1.13376107320932 -48.3076979427362 0 0 14.5100127649817 -10.2743494930456 -3.28544713444169 0 0 0 0 0 0
-116.103490388393 0 -3.9516885638237 0 25.9898513521495 0 0 16.1451469898224 0 -47.3971697152761 -14.0222402456039 23.3725899416758 -7.26873210235097 -0.972642046773703 0.753248128252451 -13.7313649524245 -6.70128043135371 3.46741366533812 30.4527320437937 16.6187888599171 -3.19520863732366 26.0789087606322 0 0 0 0 0 32.8783181739129 -30.505607097666 13.0797600252972 14.9065600144727 0 0 0 0 0 67.1934014696276 -10.9311103146027 -13.1584504615283 -50.4167032640852 0 0 30.9630228367658 2.81819264205306 2.53651104918031 75.6500387444038 4.31676858091938 -0.874152343343008 -41.021289702207 0 0 11.5776111666429 -11.1787453212344 -3.16531100848653 0 0 0 0 0 0
-115.884300279617 0 -3.92807075381279 0 24.85908512683 0 0 16.5673790693283 0 -41.6167689936146 -16.396847661446 21.0781384688199 -7.67280423595298 -0.964585214998083 0.976729121208 -16.7983733842187 -7.67560533918869 4.19065736170111 26.1685160029372 14.6666900339748 -3.19435075378008 28.5059225670952 0 0 0 0 0 29.7941465684312 -27.4544227272692 12.0314597837798 14.1145568915274 0 0 0 0 0 56.4558152490547 -11.5684072214441 -11.4003819199691 -42.4645667304386 0 0 27.4056132278954 2.19124452014367 2.41892981316865 64.6521004510681 4.3134662977483 -0.525123641037447 -33.4135620423638 0 0 8.68131284583753 -10.2550489237368 -3.1072257051167 0 0 0 0 0 0
-115.631283938885 0 -3.89797339439392 0 23.6599857668725 0 0 16.9228717923164 0 -36.321694776235 -18.6960084977915 18.9295514116595 -7.00113272354427 -0.78410089703245 1.00561152405704 -19.0281769386265 -8.41960639982352 4.81295271683921 22.3506103825878 12.7978684796112 -3.44047534842894 30.4175405440727 0 0 0 0 0 26.4038635765449 -24.6845807508271 11.3249579658898 12.812051769637 0 0 0 0 0 45.8634755422428 -11.0515703229497 -9.26672911148671 -34.1934193814175 0 0 23.7509773842696 1.21877165962859 2.29619241742143 54.1063274774459 3.95817836142925 -0.15621601180303 -25.8202068080815 0 0 5.8910610392547 -8.11085756470232 -3.17779701481513 0 0 0 0 0 0
-115.360218858719 0 -3.85377793908119 0 22.3911544413737 0 0 17.192530632019 0 -31.4721953882787 -20.8897060350792 16.9269531997995 -5.59576743688587 -0.507485686192239 0.849353160269573 -20.3756946859153 -9.04076227697012 5.18973017722865 18.8186488173012 10.8575065706487 -3.703240422554 32.0361246226365 0 0 0 0 0 22.9485537855422 -21.8926955305486 10.6656815270296 11.0235590515063 0 0 0 0 0 35.7793398252227 -9.82104198170796 -7.25979889074473 -25.923595381548 0 0 20.1598588001722 0.250453739789518 2.14771699646644 43.9226165175188 3.48276004135461 0.221443800887006 -18.0589638164531 0 0 3.35936365687763 -5.10154250997804 -3.35165975095343 0 0 0 0 0 0
-115.107933437824 0 -3.78734960407019 0 21.066950403351 0 0 17.3723581433296 0 -27.1046762040756 -22.6909602664787 15.064235007172 -3.82561813847559 -0.305259531888805 0.595799619158056 -21.1429382142903 -9.49625691950122 5.41811764491541 15.4862806691613 8.83676847855037 -3.84724180568826 33.1616646657737 0 0 0 0 0 19.6585118488521 -19.1962840847489 9.98663396099907 9.18083463136578 0 0 0 0 0 26.6280534210203 -8.08862987945327 -5.66894347573473 -18.0704590248262 0 0 16.7766690100475 -0.718053058671787 1.92806042982728 34.7110389511301 2.87910425393332 0.647298624839349 -10.7102394912576 0 0 0.666169260683936 -2.48402121325948 -3.67034212431976 0 0 0 0 0 0
-114.886124640703 0 -3.69690747112036 0 19.7061929956969 0 0 17.4621874213219 0 -23.0226606310341 -24.0365392600105 13.2576399415544 -2.08643057339512 -0.205573424957014 0.32057463864806 -21.6327880485041 -9.82549041356809 5.53496737381266 12.3821748382878 6.87667449540541 -3.74702873409156 33.7148860828826 0 0 0 0 0 16.6322480658795 -16.5818986201688 9.20815381042313 7.38891230449813 0 0 0 0 0 18.5005635791944 -6.07641583318751 -4.58964208203545 -11.2435645673143 0 0 13.9843691761859 -1.51621462469803 1.65088228645297 26.368588536383 2.27023046124981 1.09431444775569 -3.97732544851738 0 0 -1.83021852766742 -0.24391819563046 -4.08020244987295 0 0 0 0 0 0
-114.710920637846 0 -3.57407301664352 0 18.3550809864633 0 0 17.4929532885551 0 -19.2413137837173 -24.4084329693905 11.3227901707424 -0.249302078556067 -0.626789099315579 0.269504858790932 -22.0924468542655 -10.1481301364048 5.53246107318225 9.25547669404532 5.02147216061094 -3.24799813555875 33.8812899816317 0 0 0 0 0 13.9881122496179 -14.2825119049288 8.33681618488837 5.75991389499739 0 0 0 0 0 11.4621656135271 -4.50007071692503 -3.73050663596677 -5.44738492914511 0 0 11.6297893440539 -2.4234363430751 1.2201989179851 19.9236703365108 1.12978868521234 1.61396155890812 0.00348467963846586 0 0 -3.08149636261079 1.73037638503042 -4.55071216118863 0 0 0 0 0 0
